<svg fill="none" height="34" viewBox="0 0 35 34" width="35" xmlns="http://www.w3.org/2000/svg"><path clip-rule="evenodd" d="m17.7778 34c9.3889 0 17-7.6112 17-17 0-9.38884-7.6111-17-17-17-9.38881 0-16.999968 7.61116-16.999968 17 0 9.3888 7.611158 17 16.999968 17zm-4.16-19.2628v10.1958h-3.5633v-10.1958zm.2349-3.1531c0 .9784-.7735 1.7613-2.0158 1.7613l-.0003-.0001h-.0231c-1.1959 0-1.96902-.7829-1.96902-1.7613 0-1.0007.79652-1.76173 2.01602-1.76173 1.2187 0 1.9689.76103 1.9922 1.76183zm5.3004 13.3489h-3.563l-.0001.0004s.0468-9.2393.0003-10.1958h3.5631v1.4431c.4736-.6945 1.3213-1.6825 3.2114-1.6825 2.3443 0 4.1019 1.4573 4.1019 4.5889v5.8459h-3.5629v-5.4539c0-1.3707-.516-2.3056-1.805-2.3056-.9846 0-1.5708.6305-1.8283 1.2395-.0941.2174-.1174.5225-.1174.8268z" fill="#fff" fill-rule="evenodd"/></svg>