<svg width="40" height="40" viewBox="0 0 40 40" fill="none" xmlns="http://www.w3.org/2000/svg">
<mask id="mask0_13716_18513" style="mask-type:alpha" maskUnits="userSpaceOnUse" x="0" y="0" width="40" height="40">
<rect width="40" height="40" fill="#D9D9D9"/>
</mask>
<g mask="url(#mask0_13716_18513)">
<path d="M10.1185 37.0069C8.60238 37.0069 7.31363 36.4762 6.25224 35.4148C5.19085 34.3535 4.66016 33.0647 4.66016 31.5486V29.8619C4.66016 28.8258 5.02641 27.9415 5.75891 27.209C6.49141 26.4765 7.37571 26.1103 8.41182 26.1103H9.68016V6.78776C9.68016 5.73832 10.0497 4.84401 10.7889 4.10484C11.5281 3.36568 12.4224 2.99609 13.4718 2.99609H31.556C32.6054 2.99609 33.4997 3.36568 34.2389 4.10484C34.9781 4.84401 35.3477 5.73832 35.3477 6.78776V31.5486C35.3477 33.0647 34.817 34.3535 33.7556 35.4148C32.6942 36.4762 31.4054 37.0069 29.8893 37.0069H10.1185ZM29.8893 33.2153C30.3615 33.2153 30.7574 33.0555 31.0768 32.7361C31.3963 32.4167 31.556 32.0208 31.556 31.5486V6.78776H13.4718V26.1103H24.431C25.4804 26.1103 26.3747 26.4798 27.1139 27.219C27.8531 27.9582 28.2227 28.8525 28.2227 29.9019V31.5486C28.2227 32.0208 28.3824 32.4167 28.7018 32.7361C29.0213 33.0555 29.4171 33.2153 29.8893 33.2153ZM16.9347 14.9815C16.4292 14.9815 16.0034 14.8086 15.6572 14.4628C15.3114 14.1167 15.1385 13.6908 15.1385 13.1853C15.1385 12.68 15.3114 12.2543 15.6572 11.9082C16.0034 11.5621 16.4292 11.389 16.9347 11.389H28.0931C28.5986 11.389 29.0243 11.5621 29.3702 11.9082C29.7163 12.2543 29.8893 12.68 29.8893 13.1853C29.8893 13.6908 29.7163 14.1167 29.3702 14.4628C29.0243 14.8086 28.5986 14.9815 28.0931 14.9815H16.9347ZM16.9347 20.2407C16.4292 20.2407 16.0034 20.0676 15.6572 19.7215C15.3114 19.3757 15.1385 18.95 15.1385 18.4444C15.1385 17.9389 15.3114 17.5132 15.6572 17.1673C16.0034 16.8212 16.4292 16.6482 16.9347 16.6482H28.0931C28.5986 16.6482 29.0243 16.8212 29.3702 17.1673C29.7163 17.5132 29.8893 17.9389 29.8893 18.4444C29.8893 18.95 29.7163 19.3757 29.3702 19.7215C29.0243 20.0676 28.5986 20.2407 28.0931 20.2407H16.9347ZM10.1185 33.2153H24.431V29.9019H8.45182V31.5486C8.45182 32.0208 8.61154 32.4167 8.93099 32.7361C9.25043 33.0555 9.64627 33.2153 10.1185 33.2153ZM10.1185 33.2153H8.45182H24.431H10.1185Z" fill="#5124A6"/>
</g>
</svg>
