<svg width="40" height="40" viewBox="0 0 40 40" fill="none" xmlns="http://www.w3.org/2000/svg">
<mask id="mask0_13716_18500" style="mask-type:alpha" maskUnits="userSpaceOnUse" x="0" y="0" width="40" height="40">
<rect width="40" height="40" fill="#D9D9D9"/>
</mask>
<g mask="url(#mask0_13716_18500)">
<path d="M20.0054 37.0031C17.6541 37.0031 15.4445 36.5573 13.3765 35.6657C11.3085 34.7741 9.50785 33.5617 7.97463 32.0284C6.4414 30.4952 5.22899 28.6945 4.33738 26.6264C3.44579 24.5582 3 22.3483 3 19.9968C3 17.6453 3.44579 15.4357 4.33738 13.3681C5.22899 11.3005 6.4414 9.50005 7.97463 7.96685C9.50785 6.43363 11.3085 5.22121 13.3767 4.3296C15.4449 3.43799 17.6547 2.99219 20.0063 2.99219C22.3577 2.99219 24.5657 3.43799 26.63 4.3296C28.6943 5.22121 30.4931 6.43363 32.0263 7.96685C33.5595 9.50005 34.7719 11.3007 35.6635 13.3689C36.5551 15.4371 37.0009 17.647 37.0009 19.9985C37.0009 22.35 36.5551 24.5595 35.6635 26.6272C34.7719 28.6948 33.5595 30.4952 32.0263 32.0284C30.4931 33.5617 28.6935 34.7741 26.6276 35.6657C24.5617 36.5573 22.3543 37.0031 20.0054 37.0031ZM18.3487 33.1281V29.8881C17.4387 29.8881 16.6606 29.5649 16.0143 28.9186C15.3681 28.2724 15.045 27.4955 15.045 26.5879V24.9379L7.125 17.0176C7.04167 17.5109 6.96528 18.0043 6.89583 18.4976C6.82639 18.991 6.79167 19.4858 6.79167 19.9821C6.79167 23.3182 7.88586 26.2407 10.0743 28.7496C12.2627 31.2586 15.0208 32.7181 18.3487 33.1281ZM29.7491 28.9179C30.3046 28.3135 30.7997 27.6604 31.2341 26.9587C31.6686 26.257 32.0317 25.5259 32.3234 24.7653C32.615 24.0047 32.8356 23.2239 32.985 22.4227C33.1345 21.6215 33.2092 20.8065 33.2092 19.9777C33.2092 17.283 32.4622 14.8221 30.9683 12.5949C29.4743 10.3676 27.4734 8.76062 24.9656 7.7739V8.42064C24.9656 9.32909 24.6392 10.1068 23.9864 10.7537C23.3336 11.4006 22.5538 11.7241 21.6468 11.7241H18.3487V15.0246C18.3487 15.4921 18.189 15.8856 17.8695 16.2051C17.5501 16.5245 17.1566 16.6842 16.689 16.6842H13.3886V19.9777H23.3048C23.7731 19.9777 24.167 20.1375 24.4864 20.4569C24.8059 20.7763 24.9656 21.1697 24.9656 21.637V26.5846H26.6023C27.3246 26.5846 27.9745 26.7999 28.5523 27.2304C29.13 27.661 29.529 28.2235 29.7491 28.9179Z" fill="#5124A6"/>
</g>
</svg>
