<svg width="40" height="40" viewBox="0 0 40 40" fill="none" xmlns="http://www.w3.org/2000/svg">
<mask id="mask0_13716_18490" style="mask-type:alpha" maskUnits="userSpaceOnUse" x="0" y="0" width="40" height="40">
<rect width="40" height="40" fill="#D9D9D9"/>
</mask>
<g mask="url(#mask0_13716_18490)">
<path d="M1.73958 30.159C1.20758 30.159 0.758611 29.976 0.392667 29.61C0.0267222 29.2441 -0.15625 28.7951 -0.15625 28.2631V27.3745C-0.15625 26.1041 0.471472 25.0863 1.72692 24.3212C2.98233 23.556 4.62997 23.1735 6.66983 23.1735C6.974 23.1735 7.26061 23.184 7.52967 23.2052C7.79872 23.2263 8.06193 23.258 8.31929 23.3003C7.91712 23.889 7.62078 24.5188 7.43025 25.1895C7.23972 25.8602 7.14446 26.5747 7.14446 27.3329V30.159H1.73958ZM11.7396 30.159C11.2076 30.159 10.7586 29.976 10.3927 29.61C10.0267 29.2441 9.84375 28.7951 9.84375 28.2631V27.3329C9.84375 25.48 10.7806 23.9763 12.6544 22.8218C14.5282 21.6674 16.9778 21.0901 20.0032 21.0901C23.051 21.0901 25.5062 21.6674 27.3687 22.8218C29.2313 23.9763 30.1626 25.48 30.1626 27.3329V28.2631C30.1626 28.7951 29.9796 29.2441 29.6137 29.61C29.2477 29.976 28.7987 30.159 28.2668 30.159H11.7396ZM32.8619 30.159V27.3329C32.8619 26.5774 32.7613 25.862 32.5602 25.1866C32.3592 24.5112 32.0681 23.8824 31.687 23.3003C31.9444 23.258 32.2076 23.2263 32.4767 23.2052C32.7457 23.184 33.0323 23.1735 33.3365 23.1735C35.3764 23.1735 37.024 23.556 38.2794 24.3212C39.5349 25.0863 40.1626 26.1041 40.1626 27.3745V28.2631C40.1626 28.7951 39.9796 29.2441 39.6137 29.61C39.2477 29.976 38.7988 30.159 38.2668 30.159H32.8619ZM20.0032 24.6925C18.5461 24.6925 17.2274 24.8828 16.0471 25.2636C14.8668 25.6443 14.1291 26.0753 13.8338 26.5566H26.1725C25.8561 26.0542 25.1131 25.6179 23.9434 25.2478C22.7737 24.8776 21.4603 24.6925 20.0032 24.6925ZM6.66983 21.5466C5.71994 21.5466 4.91031 21.2119 4.24092 20.5426C3.57156 19.8732 3.23688 19.0636 3.23688 18.1137C3.23688 17.1638 3.57156 16.3541 4.24092 15.6848C4.91031 15.0154 5.71994 14.6807 6.66983 14.6807C7.61972 14.6807 8.42936 15.0154 9.09875 15.6848C9.76811 16.3541 10.1028 17.1638 10.1028 18.1137C10.1028 19.0636 9.76811 19.8732 9.09875 20.5426C8.42936 21.2119 7.61972 21.5466 6.66983 21.5466ZM33.3365 21.5466C32.3866 21.5466 31.577 21.2119 30.9076 20.5426C30.2382 19.8732 29.9035 19.0636 29.9035 18.1137C29.9035 17.1638 30.2382 16.3541 30.9076 15.6848C31.577 15.0154 32.3866 14.6807 33.3365 14.6807C34.2864 14.6807 35.096 15.0154 35.7654 15.6848C36.4348 16.3541 36.7695 17.1638 36.7695 18.1137C36.7695 19.0636 36.4348 19.8732 35.7654 20.5426C35.096 21.2119 34.2864 21.5466 33.3365 21.5466ZM20.0008 19.8501C18.567 19.8501 17.349 19.3483 16.3469 18.3446C15.3448 17.3409 14.8438 16.1221 14.8438 14.6883C14.8438 13.2545 15.3456 12.0365 16.3493 11.0344C17.3529 10.0323 18.5717 9.53125 20.0055 9.53125C21.4393 9.53125 22.6573 10.0331 23.6594 11.0368C24.6615 12.0404 25.1626 13.2592 25.1626 14.693C25.1626 16.1268 24.6607 17.3448 23.6571 18.3469C22.6534 19.349 21.4346 19.8501 20.0008 19.8501ZM20.0014 13.1236C19.5569 13.1236 19.1849 13.274 18.8854 13.5747C18.5859 13.8753 18.4361 14.2479 18.4361 14.6924C18.4361 15.1369 18.5865 15.5089 18.8872 15.8084C19.1878 16.1079 19.5604 16.2577 20.0049 16.2577C20.4494 16.2577 20.8214 16.1073 21.1209 15.8067C21.4204 15.506 21.5702 15.1334 21.5702 14.6889C21.5702 14.2444 21.4199 13.8724 21.1192 13.5729C20.8185 13.2734 20.4459 13.1236 20.0014 13.1236Z" fill="#5124A6"/>
</g>
</svg>
