<svg width="40" height="40" viewBox="0 0 40 40" fill="none" xmlns="http://www.w3.org/2000/svg">
<mask id="mask0_13716_18529" style="mask-type:alpha" maskUnits="userSpaceOnUse" x="0" y="0" width="40" height="40">
<rect width="40" height="40" fill="#5124A6"/>
</mask>
<g mask="url(#mask0_13716_18529)">
<path d="M11.8518 18.3478C12.2073 17.6431 12.5736 16.9628 12.9505 16.3069C13.3272 15.6511 13.7423 14.9919 14.1959 14.3294L12.0022 13.8911L8.83094 17.0724L11.8518 18.3478ZM31.9847 7.2682C30.0402 7.35681 28.0021 7.93611 25.8701 9.00611C23.7382 10.0764 21.7927 11.491 20.0339 13.2499C18.8739 14.4099 17.8487 15.6383 16.9584 16.9353C16.0684 18.2319 15.378 19.4836 14.8872 20.6903L19.5472 25.3286C20.7539 24.8378 22.0072 24.149 23.3072 23.2624C24.6075 22.3754 25.8376 21.3519 26.9976 20.1919C28.7565 18.4328 30.1694 16.491 31.2364 14.3665C32.303 12.2418 32.884 10.2072 32.9793 8.26278C32.9859 8.13167 32.9668 8.00223 32.9218 7.87445C32.8768 7.74667 32.8061 7.63445 32.7097 7.53778C32.613 7.44139 32.5008 7.3707 32.373 7.3257C32.2452 7.2807 32.1158 7.26153 31.9847 7.2682ZM23.1072 17.1086C22.4816 16.4831 22.1689 15.715 22.1689 14.8044C22.1689 13.8936 22.4816 13.1254 23.1072 12.4999C23.7327 11.8743 24.5044 11.5615 25.4222 11.5615C26.3402 11.5615 27.1121 11.8743 27.7376 12.4999C28.3632 13.1254 28.6759 13.8936 28.6759 14.8044C28.6759 15.715 28.3632 16.4831 27.7376 17.1086C27.1121 17.7342 26.3402 18.0469 25.4222 18.0469C24.5044 18.0469 23.7327 17.7342 23.1072 17.1086ZM21.8997 28.354L23.1751 31.4165L26.3464 28.2453L25.918 26.0415C25.2555 26.4951 24.5964 26.905 23.9405 27.2711C23.2847 27.6375 22.6044 27.9985 21.8997 28.354ZM36.6943 5.6057C36.8898 8.84736 36.3682 11.9413 35.1293 14.8874C33.8904 17.8332 31.9648 20.6122 29.3526 23.2244L29.3026 23.2744C29.2829 23.2944 29.2664 23.311 29.253 23.324L30.0964 27.479C30.2208 28.1076 30.188 28.724 29.998 29.3282C29.808 29.9324 29.4887 30.4588 29.0401 30.9074L23.8897 36.0578C23.42 36.5278 22.8519 36.7075 22.1855 36.5969C21.5191 36.4864 21.0582 36.1168 20.8026 35.4882L18.1814 29.3407L10.9068 22.0661L4.75927 19.4449C4.13066 19.1893 3.75413 18.73 3.62969 18.0669C3.50524 17.4039 3.67802 16.8375 4.14802 16.3678L9.31802 11.1974C9.76691 10.7488 10.2954 10.4328 10.9034 10.2494C11.5115 10.0661 12.1298 10.0367 12.7584 10.1611L16.9234 11.0044C16.9365 10.9911 16.9497 10.9761 16.963 10.9594C16.9764 10.9431 16.9897 10.9282 17.003 10.9149C19.6286 8.28931 22.4127 6.35875 25.3555 5.1232C28.298 3.88764 31.3901 3.36431 34.6318 3.5532C34.8871 3.57431 35.1375 3.63847 35.383 3.7457C35.6286 3.85292 35.8479 4.0032 36.0409 4.19653C36.2343 4.38986 36.3862 4.60917 36.4968 4.85445C36.6073 5.1 36.6732 5.35042 36.6943 5.6057ZM6.13177 26.674C7.17038 25.6351 8.42927 25.1088 9.90844 25.0949C11.3876 25.081 12.6465 25.5935 13.6851 26.6324C14.7237 27.671 15.2361 28.9299 15.2222 30.409C15.2083 31.8882 14.682 33.1471 13.6434 34.1857C12.2437 35.5854 10.5809 36.4219 8.6551 36.6953C6.72927 36.9683 4.79997 37.2233 2.86719 37.4603C3.10385 35.5206 3.35719 33.5878 3.62719 31.6619C3.89691 29.7364 4.73177 28.0738 6.13177 26.674ZM8.83552 29.3361C8.40302 29.7683 8.10149 30.2913 7.93094 30.9049C7.76038 31.5185 7.62288 32.1425 7.51844 32.7769C8.15316 32.6725 8.77719 32.5386 9.39052 32.3753C10.0041 32.2119 10.5272 31.9142 10.9597 31.4819C11.2664 31.175 11.4302 30.8104 11.4514 30.3882C11.4725 29.9657 11.3297 29.6011 11.023 29.2944C10.7161 28.9875 10.3515 28.841 9.92927 28.8549C9.50677 28.8688 9.14219 29.0292 8.83552 29.3361Z" fill="#5124A6"/>
</g>
</svg>
